<svg width="243" height="24" viewBox="0 0 243 24" fill="none" xmlns="http://www.w3.org/2000/svg">
<path d="M6.48242 10.7891H2.13477L2.11133 8.64453H5.9082C6.54883 8.64453 7.0918 8.55078 7.53711 8.36328C7.99023 8.16797 8.33398 7.89062 8.56836 7.53125C8.80273 7.16406 8.91992 6.72266 8.91992 6.20703C8.91992 5.63672 8.81055 5.17188 8.5918 4.8125C8.37305 4.45312 8.03711 4.19141 7.58398 4.02734C7.13867 3.86328 6.56836 3.78125 5.87305 3.78125H3.02539V18.5H0.0839844V1.4375H5.87305C6.81055 1.4375 7.64648 1.52734 8.38086 1.70703C9.12305 1.88672 9.75195 2.16797 10.2676 2.55078C10.791 2.92578 11.1855 3.40234 11.4512 3.98047C11.7246 4.55859 11.8613 5.24609 11.8613 6.04297C11.8613 6.74609 11.6934 7.39062 11.3574 7.97656C11.0215 8.55469 10.5254 9.02734 9.86914 9.39453C9.21289 9.76172 8.39648 9.98047 7.41992 10.0508L6.48242 10.7891ZM6.35352 18.5H1.20898L2.5332 16.168H6.35352C7.01758 16.168 7.57227 16.0586 8.01758 15.8398C8.46289 15.6133 8.79492 15.3047 9.01367 14.9141C9.24023 14.5156 9.35352 14.0508 9.35352 13.5195C9.35352 12.9648 9.25586 12.4844 9.06055 12.0781C8.86523 11.6641 8.55664 11.3477 8.13477 11.1289C7.71289 10.9023 7.16211 10.7891 6.48242 10.7891H3.17773L3.20117 8.64453H7.50195L8.16992 9.45312C9.10742 9.48438 9.87695 9.69141 10.4785 10.0742C11.0879 10.457 11.541 10.9531 11.8379 11.5625C12.1348 12.1719 12.2832 12.8281 12.2832 13.5312C12.2832 14.6172 12.0449 15.5273 11.5684 16.2617C11.0996 16.9961 10.4238 17.5547 9.54102 17.9375C8.6582 18.3125 7.5957 18.5 6.35352 18.5ZM14.4277 12.3008V12.0312C14.4277 11.1172 14.5605 10.2695 14.8262 9.48828C15.0918 8.69922 15.4746 8.01562 15.9746 7.4375C16.4824 6.85156 17.0996 6.39844 17.8262 6.07812C18.5605 5.75 19.3887 5.58594 20.3105 5.58594C21.2402 5.58594 22.0684 5.75 22.7949 6.07812C23.5293 6.39844 24.1504 6.85156 24.6582 7.4375C25.166 8.01562 25.5527 8.69922 25.8184 9.48828C26.084 10.2695 26.2168 11.1172 26.2168 12.0312V12.3008C26.2168 13.2148 26.084 14.0625 25.8184 14.8438C25.5527 15.625 25.166 16.3086 24.6582 16.8945C24.1504 17.4727 23.5332 17.9258 22.8066 18.2539C22.0801 18.5742 21.2559 18.7344 20.334 18.7344C19.4043 18.7344 18.5723 18.5742 17.8379 18.2539C17.1113 17.9258 16.4941 17.4727 15.9863 16.8945C15.4785 16.3086 15.0918 15.625 14.8262 14.8438C14.5605 14.0625 14.4277 13.2148 14.4277 12.3008ZM17.252 12.0312V12.3008C17.252 12.8711 17.3105 13.4102 17.4277 13.918C17.5449 14.4258 17.7285 14.8711 17.9785 15.2539C18.2285 15.6367 18.5488 15.9375 18.9395 16.1562C19.3301 16.375 19.7949 16.4844 20.334 16.4844C20.8574 16.4844 21.3105 16.375 21.6934 16.1562C22.084 15.9375 22.4043 15.6367 22.6543 15.2539C22.9043 14.8711 23.0879 14.4258 23.2051 13.918C23.3301 13.4102 23.3926 12.8711 23.3926 12.3008V12.0312C23.3926 11.4688 23.3301 10.9375 23.2051 10.4375C23.0879 9.92969 22.9004 9.48047 22.6426 9.08984C22.3926 8.69922 22.0723 8.39453 21.6816 8.17578C21.2988 7.94922 20.8418 7.83594 20.3105 7.83594C19.7793 7.83594 19.3184 7.94922 18.9277 8.17578C18.5449 8.39453 18.2285 8.69922 17.9785 9.08984C17.7285 9.48047 17.5449 9.92969 17.4277 10.4375C17.3105 10.9375 17.252 11.4688 17.252 12.0312ZM31.502 14.375L36.4824 5.82031H39.3066V18.5H36.4824V9.93359L31.502 18.5H28.6777V5.82031H31.502V14.375ZM35.7324 0.945312H37.8301C37.8301 1.59375 37.6738 2.16797 37.3613 2.66797C37.0566 3.16016 36.6191 3.54688 36.0488 3.82812C35.4863 4.10938 34.8145 4.25 34.0332 4.25C32.8535 4.25 31.9199 3.94531 31.2324 3.33594C30.5527 2.71875 30.2129 1.92187 30.2129 0.945312H32.3105C32.3105 1.38281 32.4395 1.76953 32.6973 2.10547C32.9629 2.43359 33.4082 2.59766 34.0332 2.59766C34.6504 2.59766 35.0879 2.43359 35.3457 2.10547C35.6035 1.76953 35.7324 1.38281 35.7324 0.945312ZM48.1777 5.82031V18.5H45.3418V5.82031H48.1777ZM52.3379 5.82031V8.04688H41.252V5.82031H52.3379ZM57.1426 14.375L62.123 5.82031H64.9473V18.5H62.123V9.93359L57.1426 18.5H54.3184V5.82031H57.1426V14.375ZM87.3066 1.4375L80.6621 19.9648H78.4473L85.1035 1.4375H87.3066ZM107.979 12.1367H103.537V9.80469H107.979C108.752 9.80469 109.377 9.67969 109.854 9.42969C110.33 9.17969 110.678 8.83594 110.896 8.39844C111.123 7.95312 111.236 7.44531 111.236 6.875C111.236 6.33594 111.123 5.83203 110.896 5.36328C110.678 4.88672 110.33 4.50391 109.854 4.21484C109.377 3.92578 108.752 3.78125 107.979 3.78125H104.439V18.5H101.498V1.4375H107.979C109.299 1.4375 110.42 1.67188 111.342 2.14062C112.271 2.60156 112.979 3.24219 113.463 4.0625C113.947 4.875 114.189 5.80469 114.189 6.85156C114.189 7.95312 113.947 8.89844 113.463 9.6875C112.979 10.4766 112.271 11.082 111.342 11.5039C110.42 11.9258 109.299 12.1367 107.979 12.1367ZM121.971 18.7344C121.033 18.7344 120.186 18.582 119.428 18.2773C118.678 17.9648 118.037 17.5312 117.506 16.9766C116.982 16.4219 116.58 15.7695 116.299 15.0195C116.018 14.2695 115.877 13.4609 115.877 12.5938V12.125C115.877 11.1328 116.021 10.2344 116.311 9.42969C116.6 8.625 117.002 7.9375 117.518 7.36719C118.033 6.78906 118.643 6.34766 119.346 6.04297C120.049 5.73828 120.811 5.58594 121.631 5.58594C122.537 5.58594 123.33 5.73828 124.01 6.04297C124.689 6.34766 125.252 6.77734 125.697 7.33203C126.15 7.87891 126.486 8.53125 126.705 9.28906C126.932 10.0469 127.045 10.8828 127.045 11.7969V13.0039H117.248V10.9766H124.256V10.7539C124.24 10.2461 124.139 9.76953 123.951 9.32422C123.771 8.87891 123.494 8.51953 123.119 8.24609C122.744 7.97266 122.244 7.83594 121.619 7.83594C121.15 7.83594 120.732 7.9375 120.365 8.14062C120.006 8.33594 119.705 8.62109 119.463 8.99609C119.221 9.37109 119.033 9.82422 118.9 10.3555C118.775 10.8789 118.713 11.4688 118.713 12.125V12.5938C118.713 13.1484 118.787 13.6641 118.936 14.1406C119.092 14.6094 119.318 15.0195 119.615 15.3711C119.912 15.7227 120.271 16 120.693 16.2031C121.115 16.3984 121.596 16.4961 122.135 16.4961C122.814 16.4961 123.42 16.3594 123.951 16.0859C124.482 15.8125 124.943 15.4258 125.334 14.9258L126.822 16.3672C126.549 16.7656 126.193 17.1484 125.756 17.5156C125.318 17.875 124.783 18.168 124.15 18.3945C123.525 18.6211 122.799 18.7344 121.971 18.7344ZM137.686 5.82031V8.07031H132.154V18.5H129.33V5.82031H137.686ZM142.244 14.375L147.225 5.82031H150.049V18.5H147.225V9.93359L142.244 18.5H139.42V5.82031H142.244V14.375ZM158.217 16.4844C158.678 16.4844 159.092 16.3945 159.459 16.2148C159.834 16.0273 160.135 15.7695 160.361 15.4414C160.596 15.1133 160.725 14.7344 160.748 14.3047H163.408C163.393 15.125 163.15 15.8711 162.682 16.543C162.213 17.2148 161.592 17.75 160.818 18.1484C160.045 18.5391 159.189 18.7344 158.252 18.7344C157.283 18.7344 156.439 18.5703 155.721 18.2422C155.002 17.9062 154.404 17.4453 153.928 16.8594C153.451 16.2734 153.092 15.5977 152.85 14.832C152.615 14.0664 152.498 13.2461 152.498 12.3711V11.9609C152.498 11.0859 152.615 10.2656 152.85 9.5C153.092 8.72656 153.451 8.04688 153.928 7.46094C154.404 6.875 155.002 6.41797 155.721 6.08984C156.439 5.75391 157.279 5.58594 158.24 5.58594C159.256 5.58594 160.146 5.78906 160.912 6.19531C161.678 6.59375 162.279 7.15234 162.717 7.87109C163.162 8.58203 163.393 9.41016 163.408 10.3555H160.748C160.725 9.88672 160.607 9.46484 160.396 9.08984C160.193 8.70703 159.904 8.40234 159.529 8.17578C159.162 7.94922 158.721 7.83594 158.205 7.83594C157.635 7.83594 157.162 7.95312 156.787 8.1875C156.412 8.41406 156.119 8.72656 155.908 9.125C155.697 9.51562 155.545 9.95703 155.451 10.4492C155.365 10.9336 155.322 11.4375 155.322 11.9609V12.3711C155.322 12.8945 155.365 13.4023 155.451 13.8945C155.537 14.3867 155.686 14.8281 155.896 15.2188C156.115 15.6016 156.412 15.9102 156.787 16.1445C157.162 16.3711 157.639 16.4844 158.217 16.4844ZM171.459 5.82031V18.5H168.623V5.82031H171.459ZM175.619 5.82031V8.04688H164.533V5.82031H175.619ZM180.342 8.25781V23.375H177.518V5.82031H180.119L180.342 8.25781ZM188.604 12.043V12.2891C188.604 13.2109 188.494 14.0664 188.275 14.8555C188.064 15.6367 187.748 16.3203 187.326 16.9062C186.912 17.4844 186.4 17.9336 185.791 18.2539C185.182 18.5742 184.479 18.7344 183.682 18.7344C182.893 18.7344 182.201 18.5898 181.607 18.3008C181.021 18.0039 180.525 17.5859 180.119 17.0469C179.713 16.5078 179.385 15.875 179.135 15.1484C178.893 14.4141 178.721 13.6094 178.619 12.7344V11.7852C178.721 10.8555 178.893 10.0117 179.135 9.25391C179.385 8.49609 179.713 7.84375 180.119 7.29688C180.525 6.75 181.021 6.32812 181.607 6.03125C182.193 5.73438 182.877 5.58594 183.658 5.58594C184.455 5.58594 185.162 5.74219 185.779 6.05469C186.396 6.35938 186.916 6.79688 187.338 7.36719C187.76 7.92969 188.076 8.60938 188.287 9.40625C188.498 10.1953 188.604 11.0742 188.604 12.043ZM185.779 12.2891V12.043C185.779 11.457 185.725 10.9141 185.615 10.4141C185.506 9.90625 185.334 9.46094 185.1 9.07812C184.865 8.69531 184.564 8.39844 184.197 8.1875C183.838 7.96875 183.404 7.85938 182.896 7.85938C182.396 7.85938 181.967 7.94531 181.607 8.11719C181.248 8.28125 180.947 8.51172 180.705 8.80859C180.463 9.10547 180.275 9.45312 180.143 9.85156C180.01 10.2422 179.916 10.668 179.861 11.1289V13.4023C179.955 13.9648 180.115 14.4805 180.342 14.9492C180.568 15.418 180.889 15.793 181.303 16.0742C181.725 16.3477 182.264 16.4844 182.92 16.4844C183.428 16.4844 183.861 16.375 184.221 16.1562C184.58 15.9375 184.873 15.6367 185.1 15.2539C185.334 14.8633 185.506 14.4141 185.615 13.9062C185.725 13.3984 185.779 12.8594 185.779 12.2891ZM198.154 15.957V9.91016C198.154 9.45703 198.072 9.06641 197.908 8.73828C197.744 8.41016 197.494 8.15625 197.158 7.97656C196.83 7.79688 196.416 7.70703 195.916 7.70703C195.455 7.70703 195.057 7.78516 194.721 7.94141C194.385 8.09766 194.123 8.30859 193.936 8.57422C193.748 8.83984 193.654 9.14062 193.654 9.47656H190.842C190.842 8.97656 190.963 8.49219 191.205 8.02344C191.447 7.55469 191.799 7.13672 192.26 6.76953C192.721 6.40234 193.271 6.11328 193.912 5.90234C194.553 5.69141 195.271 5.58594 196.068 5.58594C197.021 5.58594 197.865 5.74609 198.6 6.06641C199.342 6.38672 199.924 6.87109 200.346 7.51953C200.775 8.16016 200.99 8.96484 200.99 9.93359V15.5703C200.99 16.1484 201.029 16.668 201.107 17.1289C201.193 17.582 201.314 17.9766 201.471 18.3125V18.5H198.576C198.443 18.1953 198.338 17.8086 198.26 17.3398C198.189 16.8633 198.154 16.4023 198.154 15.957ZM198.564 10.7891L198.588 12.5352H196.561C196.037 12.5352 195.576 12.5859 195.178 12.6875C194.779 12.7812 194.447 12.9219 194.182 13.1094C193.916 13.2969 193.717 13.5234 193.584 13.7891C193.451 14.0547 193.385 14.3555 193.385 14.6914C193.385 15.0273 193.463 15.3359 193.619 15.6172C193.775 15.8906 194.002 16.1055 194.299 16.2617C194.604 16.418 194.971 16.4961 195.4 16.4961C195.979 16.4961 196.482 16.3789 196.912 16.1445C197.35 15.9023 197.693 15.6094 197.943 15.2656C198.193 14.9141 198.326 14.582 198.342 14.2695L199.256 15.5234C199.162 15.8438 199.002 16.1875 198.775 16.5547C198.549 16.9219 198.252 17.2734 197.885 17.6094C197.525 17.9375 197.092 18.207 196.584 18.418C196.084 18.6289 195.506 18.7344 194.85 18.7344C194.021 18.7344 193.283 18.5703 192.635 18.2422C191.986 17.9062 191.479 17.457 191.111 16.8945C190.744 16.3242 190.561 15.6797 190.561 14.9609C190.561 14.2891 190.686 13.6953 190.936 13.1797C191.193 12.6562 191.568 12.2188 192.061 11.8672C192.561 11.5156 193.17 11.25 193.889 11.0703C194.607 10.8828 195.428 10.7891 196.35 10.7891H198.564ZM204.037 18.5V5.82031H206.861V16.25H211.83V5.82031H214.666V18.5H204.037ZM216.389 16.2617L216.166 22.2617H213.576V18.5H212.053V16.2617H216.389ZM221.299 14.375L226.279 5.82031H229.104V18.5H226.279V9.93359L221.299 18.5H218.475V5.82031H221.299V14.375ZM234.764 12.3008H237.693L234.096 18.5H231.178L234.764 12.3008ZM236.826 5.82031H242.264V18.5H239.451V8.04688H236.826C236.295 8.04688 235.857 8.14062 235.514 8.32812C235.17 8.50781 234.916 8.74609 234.752 9.04297C234.588 9.33203 234.506 9.62891 234.506 9.93359C234.506 10.2383 234.58 10.5312 234.729 10.8125C234.885 11.0938 235.123 11.3242 235.443 11.5039C235.771 11.6836 236.182 11.7734 236.674 11.7734H240.4V13.8359H236.674C235.893 13.8359 235.193 13.7383 234.576 13.543C233.959 13.3398 233.436 13.0625 233.006 12.7109C232.576 12.3516 232.248 11.9336 232.021 11.457C231.795 10.9727 231.682 10.4453 231.682 9.875C231.682 9.28906 231.799 8.75 232.033 8.25781C232.268 7.76562 232.604 7.33594 233.041 6.96875C233.486 6.60156 234.025 6.32031 234.658 6.125C235.299 5.92188 236.021 5.82031 236.826 5.82031Z" fill="black"/>
</svg>
