<svg width="13" height="168" viewBox="0 0 13 168" fill="none" xmlns="http://www.w3.org/2000/svg">
<path d="M6.21045 161.397C6.85791 161.397 7.35303 161.581 7.6958 161.949C8.03434 162.313 8.20361 162.829 8.20361 163.498C8.20361 164.162 7.98145 164.696 7.53711 165.098C7.08854 165.495 6.47917 165.694 5.70898 165.694H5.01074C4.26595 165.694 3.67139 165.493 3.22705 165.091C2.77848 164.685 2.5542 164.154 2.5542 163.498C2.5542 162.821 2.7277 162.3 3.07471 161.937C3.42171 161.573 3.91048 161.391 4.54102 161.391V162.317C4.12207 162.317 3.82373 162.419 3.646 162.622C3.46403 162.821 3.37305 163.113 3.37305 163.498C3.37305 163.896 3.51904 164.209 3.81104 164.438C4.10303 164.666 4.50928 164.78 5.02979 164.78H5.74707C6.25488 164.78 6.65479 164.666 6.94678 164.438C7.23877 164.209 7.38477 163.896 7.38477 163.498C7.38477 163.109 7.2959 162.817 7.11816 162.622C6.94043 162.423 6.63786 162.324 6.21045 162.324V161.397ZM5.37256 167.192C6.10042 167.192 6.77539 167.023 7.39746 166.685C8.0153 166.346 8.49984 165.887 8.85107 165.307C9.20231 164.723 9.37793 164.093 9.37793 163.416C9.37793 162.738 9.20231 162.11 8.85107 161.53C8.49984 160.951 8.0153 160.491 7.39746 160.153C6.77539 159.814 6.10042 159.645 5.37256 159.645C4.65316 159.645 3.98665 159.812 3.37305 160.146C2.75944 160.481 2.27702 160.94 1.92578 161.524C1.57031 162.104 1.39258 162.734 1.39258 163.416C1.39258 164.093 1.5682 164.723 1.91943 165.307C2.26644 165.891 2.74886 166.352 3.3667 166.691C3.98454 167.025 4.65316 167.192 5.37256 167.192ZM5.37256 167.922C4.51774 167.922 3.72428 167.726 2.99219 167.332C2.26009 166.934 1.68457 166.386 1.26562 165.688C0.842448 164.986 0.630859 164.228 0.630859 163.416C0.630859 162.603 0.842448 161.848 1.26563 161.149C1.68457 160.451 2.26009 159.905 2.99219 159.512C3.72428 159.114 4.51774 158.915 5.37256 158.915C6.20622 158.915 6.98698 159.105 7.71484 159.486C8.44271 159.867 9.02881 160.409 9.47314 161.111C9.91325 161.81 10.1333 162.578 10.1333 163.416C10.1333 164.249 9.91536 165.017 9.47949 165.72C9.03939 166.418 8.4554 166.96 7.72754 167.345C6.99967 167.73 6.21468 167.922 5.37256 167.922ZM7.06738 147.185C8.04492 147.299 8.80029 147.661 9.3335 148.27C9.86247 148.875 10.127 149.681 10.127 150.688C10.127 151.78 9.73551 152.656 8.95264 153.316C8.16976 153.972 7.1224 154.3 5.81055 154.3H4.92188C4.06283 154.3 3.30745 154.148 2.65576 153.843C2.00407 153.534 1.50472 153.098 1.15771 152.536C0.806478 151.973 0.630859 151.321 0.630859 150.581C0.630859 149.599 0.905924 148.812 1.45605 148.219C2.00195 147.627 2.75944 147.282 3.72852 147.185V148.41C2.99219 148.515 2.45898 148.746 2.12891 149.102C1.79883 149.453 1.63379 149.946 1.63379 150.581C1.63379 151.359 1.92155 151.971 2.49707 152.415C3.07259 152.855 3.89144 153.075 4.95361 153.075H5.84863C6.85156 153.075 7.64925 152.866 8.2417 152.447C8.83415 152.028 9.13037 151.442 9.13037 150.688C9.13037 150.011 8.97803 149.493 8.67334 149.133C8.36442 148.769 7.8291 148.528 7.06738 148.41V147.185ZM6.50244 146.01C5.82959 146.01 5.22445 145.879 4.68701 145.617C4.14958 145.35 3.73486 144.982 3.44287 144.512C3.15088 144.038 3.00488 143.499 3.00488 142.894C3.00488 141.958 3.32861 141.203 3.97607 140.627C4.62354 140.048 5.4847 139.758 6.55957 139.758H6.64209C7.31071 139.758 7.91162 139.887 8.44482 140.145C8.9738 140.399 9.38639 140.765 9.68262 141.243C9.97884 141.717 10.127 142.263 10.127 142.881C10.127 143.812 9.80322 144.567 9.15576 145.147C8.5083 145.722 7.65137 146.01 6.58496 146.01H6.50244ZM6.64209 144.83C7.40381 144.83 8.0153 144.654 8.47656 144.303C8.93783 143.947 9.16846 143.473 9.16846 142.881C9.16846 142.284 8.93571 141.81 8.47021 141.459C8.00049 141.108 7.34456 140.932 6.50244 140.932C5.74919 140.932 5.13981 141.112 4.67432 141.472C4.20459 141.827 3.96973 142.301 3.96973 142.894C3.96973 143.473 4.20036 143.941 4.66162 144.296C5.12288 144.652 5.78304 144.83 6.64209 144.83ZM6.64209 132.483C7.68734 132.483 8.52946 132.722 9.16846 133.201C9.80745 133.679 10.127 134.326 10.127 135.143C10.127 135.977 9.86247 136.633 9.3335 137.111H12.6406V138.285H3.13184V137.212L3.89355 137.155C3.30111 136.677 3.00488 136.013 3.00488 135.162C3.00488 134.337 3.31592 133.685 3.93799 133.207C4.56006 132.725 5.42546 132.483 6.53418 132.483H6.64209ZM6.50879 133.658C5.73438 133.658 5.12288 133.823 4.67432 134.153C4.22575 134.483 4.00146 134.936 4.00146 135.511C4.00146 136.222 4.31673 136.755 4.94727 137.111H8.229C8.85531 136.76 9.16846 136.222 9.16846 135.499C9.16846 134.936 8.94629 134.489 8.50195 134.159C8.05339 133.825 7.389 133.658 6.50879 133.658ZM8.27979 128.814L3.13184 127.215V125.958L11.0601 128.719C12.2026 129.147 12.7739 129.826 12.7739 130.757L12.7549 130.979L12.6724 131.417H11.7202L11.7456 131.1C11.7456 130.702 11.6652 130.393 11.5044 130.173C11.3436 129.949 11.0495 129.764 10.6221 129.621L9.92383 129.36L3.13184 131.811V130.528L8.27979 128.814ZM4.18555 121.584C4.15592 121.762 4.14111 121.955 4.14111 122.162C4.14111 122.932 4.46908 123.455 5.125 123.73H10V124.904H3.13184V123.762L3.92529 123.743C3.31169 123.358 3.00488 122.812 3.00488 122.105C3.00488 121.876 3.03451 121.703 3.09375 121.584H4.18555ZM10 119.223V120.397H3.13184V119.223H10ZM1.31006 120.493C1.11963 120.493 0.958822 120.436 0.827637 120.321C0.696452 120.203 0.630859 120.029 0.630859 119.801C0.630859 119.572 0.696452 119.399 0.827637 119.28C0.958822 119.162 1.11963 119.103 1.31006 119.103C1.50049 119.103 1.65918 119.162 1.78613 119.28C1.91309 119.399 1.97656 119.572 1.97656 119.801C1.97656 120.029 1.91309 120.203 1.78613 120.321C1.65918 120.436 1.50049 120.493 1.31006 120.493ZM6.50879 117.617C5.43815 117.617 4.58757 117.37 3.95703 116.875C3.32227 116.379 3.00488 115.723 3.00488 114.907C3.00488 114.069 3.30111 113.415 3.89355 112.945L3.13184 112.888V111.815H9.83496C10.7236 111.815 11.424 112.08 11.936 112.609C12.4481 113.134 12.7041 113.84 12.7041 114.729C12.7041 115.224 12.5983 115.709 12.3867 116.183C12.1751 116.657 11.8853 117.018 11.5171 117.268L10.8125 116.659C11.4346 116.155 11.7456 115.539 11.7456 114.812C11.7456 114.24 11.5848 113.796 11.2632 113.479C10.9416 113.157 10.4888 112.996 9.90479 112.996H9.31445C9.85612 113.466 10.127 114.107 10.127 114.919C10.127 115.723 9.80322 116.375 9.15576 116.875C8.5083 117.37 7.62598 117.617 6.50879 117.617ZM6.64209 116.437C7.4165 116.437 8.02588 116.278 8.47021 115.96C8.91032 115.643 9.13037 115.199 9.13037 114.627C9.13037 113.887 8.79395 113.343 8.12109 112.996H4.98535C4.32943 113.356 4.00146 113.895 4.00146 114.615C4.00146 115.186 4.22363 115.632 4.66797 115.954C5.1123 116.276 5.77035 116.437 6.64209 116.437ZM3.96338 108.864C3.32438 108.343 3.00488 107.666 3.00488 106.833C3.00488 105.381 3.82373 104.649 5.46143 104.636H10V105.811H5.45508C4.95996 105.815 4.59391 105.929 4.35693 106.153C4.11995 106.373 4.00146 106.718 4.00146 107.188C4.00146 107.569 4.10303 107.903 4.30615 108.191C4.50928 108.479 4.77588 108.703 5.10596 108.864H10V110.038H0.25V108.864H3.96338ZM1.46875 101.285H3.13184V100.002H4.03955V101.285H8.29883C8.57389 101.285 8.78125 101.228 8.9209 101.113C9.05632 100.999 9.12402 100.804 9.12402 100.529C9.12402 100.394 9.09863 100.208 9.04785 99.9707H10C10.0846 100.28 10.127 100.58 10.127 100.872C10.127 101.397 9.96826 101.792 9.65088 102.059C9.3335 102.326 8.88281 102.459 8.29883 102.459H4.03955V103.709H3.13184V102.459H1.46875V101.285ZM0.757813 93.6421L8.29883 90.6206L0.757813 87.5991V86.0186H10V87.2373H6.40088L2.51611 87.123L10 90.1572V91.0903L2.53516 94.1182L6.40088 93.9976H10V95.2163H0.757813V93.6421ZM3.13184 82.9399L3.99512 82.9019C3.33496 82.3771 3.00488 81.6916 3.00488 80.8452C3.00488 79.3937 3.82373 78.6616 5.46143 78.6489H10V79.8232H5.45508C4.95996 79.8275 4.59391 79.9417 4.35693 80.166C4.11995 80.3861 4.00146 80.731 4.00146 81.2007C4.00146 81.5815 4.10303 81.9159 4.30615 82.2036C4.50928 82.4914 4.77588 82.7157 5.10596 82.8765H10V84.0508H3.13184V82.9399ZM10.127 74.0278C10.127 74.9588 9.82227 75.7163 9.21289 76.3003C8.59928 76.8843 7.78044 77.1763 6.75635 77.1763H6.54053C5.85921 77.1763 5.25195 77.0472 4.71875 76.7891C4.18132 76.5267 3.76237 76.1628 3.46191 75.6973C3.15723 75.2275 3.00488 74.7197 3.00488 74.1738C3.00488 73.2809 3.29899 72.5869 3.88721 72.0918C4.47542 71.5967 5.31755 71.3491 6.41357 71.3491H6.90234V76.002C7.57943 75.985 8.12744 75.7882 8.54639 75.4116C8.9611 75.0308 9.16846 74.5483 9.16846 73.9644C9.16846 73.5496 9.08382 73.1984 8.91455 72.9106C8.74528 72.6229 8.521 72.3711 8.2417 72.1553L8.80029 71.438C9.68473 72.0135 10.127 72.8768 10.127 74.0278ZM3.96973 74.1738C3.96973 74.6478 4.14323 75.0456 4.49023 75.3672C4.83301 75.6888 5.31543 75.8877 5.9375 75.9639V72.5234H5.84863C5.25195 72.5573 4.79069 72.7181 4.46484 73.0059C4.13477 73.2936 3.96973 73.6829 3.96973 74.1738ZM3.13184 68.8799L3.89355 68.8481C3.30111 68.3446 3.00488 67.6654 3.00488 66.8105C3.00488 65.8499 3.37305 65.1961 4.10938 64.8491C3.7793 64.6206 3.5127 64.3244 3.30957 63.9604C3.10645 63.5923 3.00488 63.1585 3.00488 62.6592C3.00488 61.1527 3.80257 60.3867 5.39795 60.3613H10V61.5356H5.46777C4.97689 61.5356 4.61084 61.6478 4.36963 61.8721C4.12419 62.0964 4.00146 62.473 4.00146 63.002C4.00146 63.4378 4.13265 63.7996 4.39502 64.0874C4.65316 64.3752 5.00228 64.5423 5.44238 64.5889H10V65.7695H5.49951C4.50081 65.7695 4.00146 66.2583 4.00146 67.2358C4.00146 68.006 4.32943 68.5329 4.98535 68.8164H10V69.9907H3.13184V68.8799ZM6.50244 58.895C5.82959 58.895 5.22445 58.7638 4.68701 58.5015C4.14958 58.2349 3.73486 57.8667 3.44287 57.397C3.15088 56.923 3.00488 56.3835 3.00488 55.7783C3.00488 54.8431 3.32861 54.0877 3.97607 53.5122C4.62354 52.9325 5.4847 52.6426 6.55957 52.6426H6.64209C7.31071 52.6426 7.91162 52.7716 8.44482 53.0298C8.9738 53.2837 9.38639 53.6497 9.68262 54.1279C9.97884 54.6019 10.127 55.1478 10.127 55.7656C10.127 56.6966 9.80322 57.452 9.15576 58.0317C8.5083 58.6073 7.65137 58.895 6.58496 58.895H6.50244ZM6.64209 57.7144C7.40381 57.7144 8.0153 57.5387 8.47656 57.1875C8.93783 56.832 9.16846 56.3581 9.16846 55.7656C9.16846 55.1689 8.93571 54.695 8.47021 54.3438C8.00049 53.9925 7.34456 53.8169 6.50244 53.8169C5.74919 53.8169 5.13981 53.9967 4.67432 54.3564C4.20459 54.7119 3.96973 55.1859 3.96973 55.7783C3.96973 56.3581 4.20036 56.8257 4.66162 57.1812C5.12288 57.5366 5.78304 57.7144 6.64209 57.7144ZM1.76074 44.6001L1.76074 47.5708H10V48.7832H1.76074V51.7476H0.757813L0.757813 44.6001H1.76074ZM10.127 41.1978C10.127 42.1287 9.82227 42.8862 9.21289 43.4702C8.59928 44.0542 7.78044 44.3462 6.75635 44.3462H6.54053C5.85921 44.3462 5.25195 44.2171 4.71875 43.959C4.18132 43.6966 3.76237 43.3327 3.46191 42.8672C3.15723 42.3975 3.00488 41.8896 3.00488 41.3438C3.00488 40.4508 3.29899 39.7568 3.88721 39.2617C4.47542 38.7666 5.31755 38.519 6.41357 38.519H6.90234V43.1719C7.57943 43.1549 8.12744 42.9582 8.54639 42.5815C8.9611 42.2007 9.16846 41.7183 9.16846 41.1343C9.16846 40.7196 9.08382 40.3683 8.91455 40.0806C8.74528 39.7928 8.521 39.541 8.2417 39.3252L8.80029 38.6079C9.68473 39.1834 10.127 40.0467 10.127 41.1978ZM3.96973 41.3438C3.96973 41.8177 4.14323 42.2155 4.49023 42.5371C4.83301 42.8587 5.31543 43.0576 5.9375 43.1338V39.6934H5.84863C5.25195 39.7272 4.79069 39.888 4.46484 40.1758C4.13477 40.4635 3.96973 40.8529 3.96973 41.3438ZM9.16846 34.3994C9.16846 33.9805 9.0415 33.6144 8.7876 33.3013C8.53369 32.9881 8.21631 32.8146 7.83545 32.7808V31.6699C8.229 31.6911 8.60352 31.8265 8.95898 32.0762C9.31445 32.3258 9.59798 32.6602 9.80957 33.0791C10.0212 33.4938 10.127 33.9339 10.127 34.3994C10.127 35.3346 9.81592 36.0794 9.19385 36.6338C8.56755 37.1839 7.71273 37.459 6.62939 37.459H6.43262C5.764 37.459 5.16943 37.3363 4.64893 37.0908C4.12842 36.8454 3.72428 36.4941 3.43652 36.0371C3.14876 35.5758 3.00488 35.0321 3.00488 34.4058C3.00488 33.6356 3.23551 32.9966 3.69678 32.4888C4.15804 31.9767 4.75684 31.7038 5.49316 31.6699V32.7808C5.04883 32.8146 4.6849 32.9839 4.40137 33.2886C4.11361 33.589 3.96973 33.9614 3.96973 34.4058C3.96973 35.0024 4.18555 35.4658 4.61719 35.7959C5.0446 36.1217 5.66455 36.2847 6.47705 36.2847H6.69922C7.49056 36.2847 8.09993 36.1217 8.52734 35.7959C8.95475 35.4701 9.16846 35.0046 9.16846 34.3994ZM3.96338 29.1753C3.32438 28.6548 3.00488 27.9777 3.00488 27.144C3.00488 25.6925 3.82373 24.9604 5.46143 24.9478H10V26.1221H5.45508C4.95996 26.1263 4.59391 26.2406 4.35693 26.4648C4.11995 26.6849 4.00146 27.0298 4.00146 27.4995C4.00146 27.8804 4.10303 28.2147 4.30615 28.5024C4.50928 28.7902 4.77588 29.0145 5.10596 29.1753H10V30.3496H0.25V29.1753H3.96338ZM10 18.4731V19.6919H0.757813V18.4731H10ZM3.13184 15.312L3.99512 15.2739C3.33496 14.7492 3.00488 14.0636 3.00488 13.2173C3.00488 11.7658 3.82373 11.0337 5.46143 11.021H10V12.1953H5.45508C4.95996 12.1995 4.59391 12.3138 4.35693 12.5381C4.11995 12.7581 4.00146 13.103 4.00146 13.5728C4.00146 13.9536 4.10303 14.2879 4.30615 14.5757C4.50928 14.8634 4.77588 15.0877 5.10596 15.2485H10V16.4229H3.13184V15.312ZM9.16846 6.49512C9.16846 6.07617 9.0415 5.71012 8.7876 5.39697C8.53369 5.08382 8.21631 4.91032 7.83545 4.87646V3.76562C8.229 3.78678 8.60352 3.9222 8.95898 4.17188C9.31445 4.42155 9.59798 4.75586 9.80957 5.1748C10.0212 5.58952 10.127 6.02962 10.127 6.49512C10.127 7.43034 9.81592 8.17513 9.19385 8.72949C8.56755 9.27962 7.71273 9.55469 6.62939 9.55469H6.43262C5.764 9.55469 5.16943 9.43197 4.64893 9.18652C4.12842 8.94108 3.72428 8.58984 3.43652 8.13281C3.14876 7.67155 3.00488 7.12777 3.00488 6.50146C3.00488 5.73128 3.23551 5.09229 3.69678 4.58447C4.15804 4.07243 4.75684 3.79948 5.49316 3.76562V4.87646C5.04883 4.91032 4.6849 5.07959 4.40137 5.38428C4.11361 5.68473 3.96973 6.05713 3.96973 6.50146C3.96973 7.09814 4.18555 7.56152 4.61719 7.8916C5.0446 8.21745 5.66455 8.38037 6.47705 8.38037H6.69922C7.49056 8.38037 8.09993 8.21745 8.52734 7.8916C8.95475 7.56576 9.16846 7.10026 9.16846 6.49512ZM9.38428 2.41992C9.18115 2.41992 9.01188 2.36068 8.87646 2.24219C8.74105 2.11947 8.67334 1.9375 8.67334 1.69629C8.67334 1.45508 8.74105 1.27311 8.87646 1.15039C9.01188 1.02344 9.18115 0.959961 9.38428 0.959961C9.57894 0.959961 9.74186 1.02344 9.87305 1.15039C10.0042 1.27311 10.0698 1.45508 10.0698 1.69629C10.0698 1.9375 10.0042 2.11947 9.87305 2.24219C9.74186 2.36068 9.57894 2.41992 9.38428 2.41992Z" fill="#2B353E" fill-opacity="0.7"/>
</svg>
