<svg width="87" height="89" viewBox="0 0 87 89" fill="none" xmlns="http://www.w3.org/2000/svg">
<g opacity="0.85" filter="url(#filter0_b_317_7561)">
<ellipse cx="40.9897" cy="29.1614" rx="22.5" ry="22.5394" fill="white" fill-opacity="0.45"/>
<path d="M40.9897 52.2008C53.6931 52.2008 63.9897 41.8849 63.9897 29.1614C63.9897 16.438 53.6931 6.12207 40.9897 6.12207C28.2864 6.12207 17.9897 16.438 17.9897 29.1614C17.9897 41.8849 28.2864 52.2008 40.9897 52.2008Z" stroke="#E1B039"/>
</g>
<g filter="url(#filter1_d_317_7561)">
<path d="M50.743 28.2958C51.4088 28.6808 51.4088 29.642 50.743 30.0271L36.8654 38.0533C36.1987 38.4389 35.3647 37.9578 35.3647 37.1877V21.1351C35.3647 20.365 36.1987 19.8839 36.8654 20.2695L50.743 28.2958Z" fill="#E1B039"/>
<path d="M50.4927 28.7286C50.8256 28.9211 50.8256 29.4017 50.4927 29.5942L36.6151 37.6205C36.2817 37.8133 35.8647 37.5727 35.8647 37.1877V21.1351C35.8647 20.7501 36.2817 20.5095 36.6151 20.7023L50.4927 28.7286Z" stroke="#E1B039" stroke-linejoin="round"/>
</g>
<defs>
<filter id="filter0_b_317_7561" x="-62.5103" y="-74.3779" width="207" height="207.079" filterUnits="userSpaceOnUse" color-interpolation-filters="sRGB">
<feFlood flood-opacity="0" result="BackgroundImageFix"/>
<feGaussianBlur in="BackgroundImage" stdDeviation="40"/>
<feComposite in2="SourceAlpha" operator="in" result="effect1_backgroundBlur_317_7561"/>
<feBlend mode="normal" in="SourceGraphic" in2="effect1_backgroundBlur_317_7561" result="shape"/>
</filter>
<filter id="filter1_d_317_7561" x="0.364746" y="0.133667" width="85.8774" height="88.0555" filterUnits="userSpaceOnUse" color-interpolation-filters="sRGB">
<feFlood flood-opacity="0" result="BackgroundImageFix"/>
<feColorMatrix in="SourceAlpha" type="matrix" values="0 0 0 0 0 0 0 0 0 0 0 0 0 0 0 0 0 0 127 0" result="hardAlpha"/>
<feOffset dy="15"/>
<feGaussianBlur stdDeviation="17.5"/>
<feComposite in2="hardAlpha" operator="out"/>
<feColorMatrix type="matrix" values="0 0 0 0 1 0 0 0 0 1 0 0 0 0 1 0 0 0 0.8 0"/>
<feBlend mode="normal" in2="BackgroundImageFix" result="effect1_dropShadow_317_7561"/>
<feBlend mode="normal" in="SourceGraphic" in2="effect1_dropShadow_317_7561" result="shape"/>
</filter>
</defs>
</svg>
